name C:\Users\antoi\Documents\MyRepositories\upper-imu-dc\Results\main_tracking\Case_93\kinematics.mot
datacolumns 43
datarows 13
range 3.00000000 3.24000000
endheader 
time	clav_prot	clav_elev	scapula_abduction	scapula_elevation	scapula_upward_rot	scapula_winging	plane_elv	shoulder_elv	axial_rot	TrapeziusScapula_M/activation	TrapeziusScapula_S/activation	TrapeziusScapula_I/activation	TrapeziusClavicle_S/activation	SerratusAnterior_I/activation	SerratusAnterior_M/activation	SerratusAnterior_S/activation	Rhomboideus_S/activation	Rhomboideus_I/activation	LevatorScapulae/activation	Coracobrachialis/activation	DeltoideusClavicle_A/activation	DeltoideusScapula_P/activation	DeltoideusScapula_M/activation	LatissimusDorsi_S/activation	LatissimusDorsi_M/activation	LatissimusDorsi_I/activation	PectoralisMajorClavicle_S/activation	PectoralisMajorThorax_I/activation	PectoralisMajorThorax_M/activation	TeresMajor/activation	Infraspinatus_I/activation	Infraspinatus_S/activation	PectoralisMinor/activation	TeresMinor/activation	Subscapularis_S/activation	Subscapularis_M/activation	Subscapularis_I/activation	Supraspinatus_P/activation	Supraspinatus_A/activation	TRIlong/activation	BIC_long/activation	BIC_brevis/activation	
          3.00000000	        -25.73633995	         -3.68296890	        -15.91366847	         -2.88642399	         10.11739397	          5.98155712	        -21.12635640	         13.08239248	         48.11023573	          0.01090868	          0.01381191	          0.01052570	          0.02346485	          0.01167281	          0.04173128	          0.01229970	          0.01445358	          0.01647077	          0.03762430	          0.01300077	          0.01330964	          0.01189040	          0.01150175	          0.01173322	          0.01167818	          0.01250623	          0.01637580	          0.01139079	          0.01691331	          0.01210271	          0.01281366	          0.01280420	          0.01107072	          0.01272222	          0.01277441	          0.01263919	          0.01242355	          0.01296211	          0.01350370	          0.01191618	          0.01334221	          0.01318473	
          3.02000000	        -23.76506528	         -4.06956477	        -16.30150978	         -3.11674723	         10.00183405	          6.11085505	        -21.41067544	         13.37293930	         47.79333570	          0.01219329	          0.02426117	          0.01133637	          0.02693612	          0.03279665	          0.05776566	          0.01453353	          0.01600499	          0.01510148	          0.03115649	          0.01425782	          0.02294039	          0.01240851	          0.04376784	          0.01338293	          0.01318131	          0.01484999	          0.02101314	          0.01230894	          0.01846733	          0.01218199	          0.01691467	          0.01875739	          0.01190309	          0.01519177	          0.01482196	          0.01461596	          0.01390583	          0.01641095	          0.01986899	          0.01163666	          0.02493157	          0.01441378	
          3.04000000	        -23.73024839	         -4.41208019	        -16.21249321	         -3.34874011	          9.89086704	          6.24190346	        -21.69829955	         13.68372370	         47.44905638	          0.01229304	          0.02569461	          0.01134673	          0.02765487	          0.03369553	          0.05792504	          0.01492182	          0.01623776	          0.01447997	          0.02759120	          0.01428614	          0.02395297	          0.01246904	          0.04543788	          0.01361186	          0.01338467	          0.01520117	          0.02151634	          0.01231360	          0.01856617	          0.01210976	          0.01757893	          0.01988455	          0.01192241	          0.01555595	          0.01510112	          0.01490059	          0.01410816	          0.01696495	          0.02082528	          0.01155359	          0.02596032	          0.01442475	
          3.06000000	        -23.71262130	         -4.74979745	        -16.13770690	         -3.58767034	          9.81368978	          6.36624630	        -21.99548616	         14.02146644	         47.05566424	          0.01243437	          0.02717596	          0.01143977	          0.02757874	          0.03589529	          0.05813942	          0.01503907	          0.01621534	          0.01407607	          0.02558798	          0.01420545	          0.02451157	          0.01243182	          0.04812752	          0.01370541	          0.01346851	          0.01528520	          0.02152939	          0.01225874	          0.01827298	          0.01201390	          0.01797001	          0.02053486	          0.01191099	          0.01567096	          0.01509313	          0.01489780	          0.01406621	          0.01714660	          0.02125763	          0.01147726	          0.02665617	          0.01434376	
          3.08000000	        -23.70812109	         -5.07653189	        -16.06851728	         -3.83004199	          9.77606734	          6.48061383	        -22.29745204	         14.39033944	         46.60473647	          0.01260804	          0.02864878	          0.01156280	          0.02736858	          0.03811244	          0.05829936	          0.01509148	          0.01611330	          0.01372165	          0.02403269	          0.01414374	          0.02516825	          0.01233099	          0.05045804	          0.01377503	          0.01353122	          0.01531094	          0.02156267	          0.01222913	          0.01799733	          0.01189517	          0.01837159	          0.02112984	          0.01190398	          0.01574764	          0.01501524	          0.01481235	          0.01393729	          0.01725898	          0.02164336	          0.01138088	          0.02747178	          0.01430124	
          3.10000000	        -23.71365703	         -5.38649208	        -15.99826534	         -4.07241059	          9.78275424	          6.58186252	        -22.59858225	         14.79406202	         46.08909675	          0.01278811	          0.03011116	          0.01168497	          0.02714356	          0.04021118	          0.05846456	          0.01511968	          0.01600745	          0.01343299	          0.02276507	          0.01408506	          0.02577016	          0.01225777	          0.05261390	          0.01383118	          0.01357992	          0.01532008	          0.02158619	          0.01218648	          0.01771473	          0.01180077	          0.01876692	          0.02170130	          0.01188995	          0.01581451	          0.01492407	          0.01471475	          0.01380931	          0.01734367	          0.02196885	          0.01130822	          0.02823181	          0.01426265	
          3.12000000	        -23.72700575	         -5.67512453	        -15.92196348	         -4.31199279	          9.83735134	          6.66733335	        -22.89521683	         15.23589051	         45.50285043	          0.01296987	          0.03153763	          0.01179639	          0.02691061	          0.04215961	          0.05852650	          0.01514093	          0.01592005	          0.01322875	          0.02172468	          0.01403437	          0.02638355	          0.01222599	          0.05445767	          0.01387559	          0.01361596	          0.01532358	          0.02165457	          0.01213764	          0.01745498	          0.01173398	          0.01919482	          0.02227284	          0.01187596	          0.01588870	          0.01482456	          0.01461102	          0.01368779	          0.01741603	          0.02227345	          0.01126296	          0.02901364	          0.01423493	
          3.14000000	        -23.74708584	         -5.93953308	        -15.83669865	         -4.54701215	          9.94229913	          6.73507725	        -23.18615012	         15.71859814	         44.83956352	          0.01315917	          0.03290032	          0.01190310	          0.02667070	          0.04381058	          0.05846652	          0.01514775	          0.01585075	          0.01307535	          0.02086127	          0.01400222	          0.02695506	          0.01221075	          0.05591648	          0.01391144	          0.01364196	          0.01532456	          0.02175812	          0.01208563	          0.01722613	          0.01168365	          0.01966094	          0.02283346	          0.01186000	          0.01597312	          0.01472297	          0.01450433	          0.01356973	          0.01748231	          0.02254418	          0.01123161	          0.02973154	          0.01422769	
          3.16000000	        -23.77377539	         -6.17839386	        -15.74145005	         -4.77659090	         10.09873937	          6.78394263	        -23.47231724	         16.24415831	         44.09286120	          0.01335848	          0.03417492	          0.01200746	          0.02641150	          0.04517214	          0.05822840	          0.01514540	          0.01579948	          0.01296503	          0.02015554	          0.01399589	          0.02751404	          0.01219540	          0.05694500	          0.01393871	          0.01365767	          0.01532416	          0.02192846	          0.01203896	          0.01706099	          0.01163849	          0.02014947	          0.02337309	          0.01184406	          0.01606391	          0.01462313	          0.01439390	          0.01344854	          0.01754928	          0.02280959	          0.01120394	          0.03042989	          0.01425311	
          3.18000000	        -23.80696946	         -6.39169459	        -15.63593989	         -5.00031295	         10.30583672	          6.81370155	        -23.75522930	         16.81388002	         43.25836238	          0.01356998	          0.03532294	          0.01211249	          0.02612710	          0.04623057	          0.05781204	          0.01514342	          0.01576509	          0.01289307	          0.01958189	          0.01402160	          0.02810380	          0.01217040	          0.05752447	          0.01395793	          0.01366377	          0.01532322	          0.02219359	          0.01200459	          0.01699173	          0.01159112	          0.02062204	          0.02386694	          0.01182988	          0.01615231	          0.01453105	          0.01428108	          0.01332129	          0.01762197	          0.02309816	          0.01117289	          0.03116944	          0.01432250	
          3.20000000	        -23.84575785	         -6.58029411	        -15.51969364	         -5.21768484	         10.56018925	          6.82505861	        -24.03529885	         17.42843677	         42.33575281	          0.01378150	          0.03628856	          0.01221593	          0.02583625	          0.04690319	          0.05721379	          0.01512785	          0.01574170	          0.01283400	          0.01913720	          0.01408549	          0.02866130	          0.01211850	          0.05764728	          0.01396802	          0.01365924	          0.01532161	          0.02253927	          0.01198626	          0.01703742	          0.01153257	          0.02103490	          0.02429067	          0.01181458	          0.01622984	          0.01445524	          0.01417121	          0.01318916	          0.01770240	          0.02339346	          0.01112643	          0.03186702	          0.01444294	
          3.22000000	        -23.88827402	         -6.74545522	        -15.39199812	         -5.42775804	         10.85573142	          6.81951255	        -24.31101185	         18.08763422	         41.32955518	          0.01399662	          0.03707941	          0.01231999	          0.02554031	          0.04723544	          0.05650710	          0.01512020	          0.01573466	          0.01280681	          0.01881198	          0.01418966	          0.02919155	          0.01204808	          0.05743046	          0.01397011	          0.01364550	          0.01531987	          0.02296096	          0.01199187	          0.01720533	          0.01146721	          0.02136181	          0.02463042	          0.01180403	          0.01629219	          0.01440110	          0.01406929	          0.01305784	          0.01779070	          0.02369659	          0.01106910	          0.03253284	          0.01461572	
          3.24000000	        -23.93167418	         -6.88835122	        -15.25179023	         -5.62888942	         11.18418356	          6.79906095	        -24.57878474	         18.79030448	         40.24900442	          0.01420053	          0.03774948	          0.01240964	          0.02526322	          0.04740538	          0.05578064	          0.01512285	          0.01574269	          0.01280781	          0.01857968	          0.01431447	          0.02982324	          0.01198507	          0.05706592	          0.01396218	          0.01362125	          0.01531749	          0.02350180	          0.01201013	          0.01749534	          0.01140332	          0.02158741	          0.02491687	          0.01179922	          0.01633378	          0.01436542	          0.01397536	          0.01293273	          0.01789357	          0.02407134	          0.01101216	          0.03334956	          0.01482263	
